<svg width="142" height="56" viewBox="0 0 142 56" fill="none" xmlns="http://www.w3.org/2000/svg">
<path d="M11.914 41.259C8.88 41.259 6.38867 40.5437 4.44 39.113C2.49133 37.6577 1.443 35.5857 1.295 32.897H9.028C9.102 33.8097 9.37333 34.4757 9.842 34.895C10.3107 35.3143 10.915 35.524 11.655 35.524C12.321 35.524 12.8637 35.3637 13.283 35.043C13.727 34.6977 13.949 34.229 13.949 33.637C13.949 32.8723 13.5913 32.2803 12.876 31.861C12.1607 31.4417 11.0013 30.973 9.398 30.455C7.696 29.8877 6.31467 29.345 5.254 28.827C4.218 28.2843 3.30533 27.5073 2.516 26.496C1.75133 25.46 1.369 24.1157 1.369 22.463C1.369 20.7857 1.78833 19.355 2.627 18.171C3.46567 16.9623 4.625 16.0497 6.105 15.433C7.585 14.8163 9.26233 14.508 11.137 14.508C14.171 14.508 16.5883 15.2233 18.389 16.654C20.2143 18.06 21.1887 20.0457 21.312 22.611H13.431C13.4063 21.8217 13.1597 21.2297 12.691 20.835C12.247 20.4403 11.6673 20.243 10.952 20.243C10.4093 20.243 9.96533 20.4033 9.62 20.724C9.27467 21.0447 9.102 21.501 9.102 22.093C9.102 22.5863 9.287 23.018 9.657 23.388C10.0517 23.7333 10.5327 24.0417 11.1 24.313C11.6673 24.5597 12.506 24.8803 13.616 25.275C15.2687 25.8423 16.6253 26.4097 17.686 26.977C18.7713 27.5197 19.6963 28.2967 20.461 29.308C21.2503 30.2947 21.645 31.5527 21.645 33.082C21.645 34.636 21.2503 36.0297 20.461 37.263C19.6963 38.4963 18.574 39.4707 17.094 40.186C15.6387 40.9013 13.912 41.259 11.914 41.259ZM41.5183 36.745H32.2683L30.8623 41H23.2403L32.7493 14.915H41.1113L50.5833 41H42.9243L41.5183 36.745ZM39.7053 31.195L36.8933 22.759L34.1183 31.195H39.7053ZM69.597 27.606C71.1263 27.9513 72.335 28.716 73.223 29.9C74.1357 31.0593 74.592 32.3913 74.592 33.896C74.592 36.116 73.8273 37.855 72.298 39.113C70.7687 40.371 68.6227 41 65.86 41H52.947V14.915H65.453C68.117 14.915 70.2013 15.507 71.706 16.691C73.2353 17.875 74 19.54 74 21.686C74 23.2153 73.593 24.498 72.779 25.534C71.9897 26.5453 70.929 27.236 69.597 27.606ZM60.199 25.275H63.862C65.6873 25.275 66.6 24.5227 66.6 23.018C66.6 21.464 65.6873 20.687 63.862 20.687H60.199V25.275ZM64.417 35.154C66.2423 35.154 67.155 34.3893 67.155 32.86C67.155 32.0707 66.9083 31.4663 66.415 31.047C65.9463 30.6277 65.268 30.418 64.38 30.418H60.199V35.154H64.417ZM85.0222 20.724V24.979H93.3472V30.492H85.0222V35.191H94.4572V41H77.7702V14.915H94.4572V20.724H85.0222ZM111.25 41L106.07 31.38H105.293V41H98.0408V14.915H109.474C111.57 14.915 113.346 15.285 114.802 16.025C116.257 16.7403 117.355 17.7393 118.095 19.022C118.835 20.28 119.205 21.6983 119.205 23.277C119.205 25.053 118.711 26.6193 117.725 27.976C116.763 29.308 115.344 30.2577 113.47 30.825L119.353 41H111.25ZM105.293 26.422H108.882C109.868 26.422 110.608 26.1877 111.102 25.719C111.595 25.2503 111.842 24.572 111.842 23.684C111.842 22.8453 111.583 22.1917 111.065 21.723C110.571 21.2297 109.844 20.983 108.882 20.983H105.293V26.422Z" fill="#000097"/>
<path d="M131.346 41.259C129.471 41.259 127.794 40.9507 126.314 40.334C124.858 39.6927 123.699 38.8293 122.836 37.744C121.997 36.634 121.528 35.3883 121.43 34.007H128.46C128.558 34.673 128.867 35.191 129.385 35.561C129.903 35.931 130.544 36.116 131.309 36.116C131.901 36.116 132.369 35.9927 132.715 35.746C133.06 35.4993 133.233 35.1787 133.233 34.784C133.233 34.266 132.949 33.8837 132.382 33.637C131.814 33.3903 130.877 33.119 129.57 32.823C128.09 32.527 126.856 32.194 125.87 31.824C124.883 31.454 124.02 30.8497 123.28 30.011C122.564 29.1723 122.207 28.0377 122.207 26.607C122.207 25.3737 122.54 24.2637 123.206 23.277C123.872 22.2657 124.846 21.464 126.129 20.872C127.436 20.28 129.002 19.984 130.828 19.984C133.541 19.984 135.675 20.65 137.229 21.982C138.783 23.314 139.683 25.0653 139.93 27.236H133.381C133.257 26.57 132.961 26.0643 132.493 25.719C132.049 25.349 131.444 25.164 130.68 25.164C130.088 25.164 129.631 25.275 129.311 25.497C129.015 25.719 128.867 26.0273 128.867 26.422C128.867 26.9153 129.15 27.2977 129.718 27.569C130.285 27.8157 131.198 28.0747 132.456 28.346C133.96 28.6667 135.206 29.0243 136.193 29.419C137.204 29.8137 138.08 30.455 138.82 31.343C139.584 32.2063 139.967 33.3903 139.967 34.895C139.967 36.1037 139.609 37.189 138.894 38.151C138.203 39.113 137.204 39.8777 135.897 40.445C134.614 40.9877 133.097 41.259 131.346 41.259Z" fill="#FE0000"/>
</svg>
